<svg id="a_propos" data-name="a propos" xmlns="http://www.w3.org/2000/svg" viewBox="0 0 379 92.55"><defs><style>.cls-1{fill:#666;}.cls-2{opacity:0.68;}.cls-3{fill:#262626;}</style></defs><title>onglets</title><path class="cls-1" d="M100.87,35l-1.93-5.25a2.1,2.1,0,0,0-.67-1.08,3.12,3.12,0,0,0-1.42-.21H87.31a2.2,2.2,0,0,0-1.48.37,6.57,6.57,0,0,0-1,2L83.23,35A3.35,3.35,0,0,0,83,36.16c0,1.14.69,1.71,2.09,1.71.36,0,.86,0,1.53-.1a12.91,12.91,0,0,1,1.47-.11c1.47,0,2.2.63,2.2,1.88s-.8,1.77-2.41,1.77a9.16,9.16,0,0,1-1.18-.11L84,40.91a23.56,23.56,0,0,0-2.47-.09c-1.25,0-2.13,0-2.63.08l-2.25.24c-1,.11-1.73.17-2.2.17-1.39,0-2.09-.59-2.09-1.77s.68-1.88,2-1.88a.88.88,0,0,1,.64.21h.7A2.47,2.47,0,0,0,78,36.74a13.46,13.46,0,0,0,1.07-2.53L89,7.15A3.31,3.31,0,0,1,92.4,4.89a3.16,3.16,0,0,1,3.27,2.26l9.6,26.59a10.81,10.81,0,0,0,1.66,3.33,2.78,2.78,0,0,0,2.15.8,2,2,0,0,0,.64-.07l1.5-.14q2,0,2,1.77c0,1.25-.68,1.88-2,1.88a15.22,15.22,0,0,1-1.55-.11c-2.25-.25-3.93-.38-5-.38q-2,0-6.44.39c-.75.06-1.32.1-1.71.1-1.43,0-2.15-.61-2.15-1.83s.79-1.82,2.36-1.82a11.65,11.65,0,0,1,1.42.11,13.68,13.68,0,0,0,1.42.1q1.77,0,1.77-1.44A7,7,0,0,0,100.87,35ZM97,24.09,92.19,9.29l-4.94,14.8a2,2,0,0,0-.1.38c0,.32.27.48.8.48h8.53c.43,0,.64-.14.64-.43A2,2,0,0,0,97,24.09Z"/><path class="cls-1" d="M136.54,15.83v1.72a9.55,9.55,0,0,1,8.2-4.18,10.65,10.65,0,0,1,8.53,3.7c2.1,2.46,3.16,5.81,3.16,10q0,6.81-3.35,10.86a11.07,11.07,0,0,1-9,4,9.62,9.62,0,0,1-7.56-3.27v4.45a20,20,0,0,0,.1,2.63c.22,1.11.73,1.66,1.56,1.66a5.64,5.64,0,0,0,1.12-.16,5.72,5.72,0,0,1,1.13-.16,1.55,1.55,0,0,1,1.72,1.77q0,1.77-2.25,1.77a20.34,20.34,0,0,1-2.4-.21,27.51,27.51,0,0,0-3.53-.17,17.89,17.89,0,0,0-2.14.11c-1.42.18-2.37.27-2.83.27a2.29,2.29,0,0,1-1.55-.56,1.66,1.66,0,0,1-.64-1.29c0-1.13.6-1.69,1.81-1.69a6,6,0,0,1,1,.14,7.76,7.76,0,0,0,1.33.18,1.18,1.18,0,0,0,1.25-1,40.23,40.23,0,0,0,.29-5.82V19.91c0-1.65-.49-2.47-1.38-2.47a5.06,5.06,0,0,0-1.14.19,5.14,5.14,0,0,1-1.2.19c-1.31,0-2-.59-2-1.77s.79-1.72,2.36-1.72q.59,0,1.29.06c.89.07,1.55.1,2,.1s.79,0,1.39-.08,1.06-.08,1.35-.08C136.09,14.33,136.54,14.83,136.54,15.83Zm.8,6.55a25.36,25.36,0,0,0-.54,5.09c0,.14,0,.41-.05.8V29a16.8,16.8,0,0,0,.59,5.22,6.47,6.47,0,0,0,2.34,2.93A7.17,7.17,0,0,0,144,38.46a7.07,7.07,0,0,0,6-2.81q2.13-2.82,2.13-8,0-10.72-7.64-10.72a7.3,7.3,0,0,0-4.6,1.55A6.71,6.71,0,0,0,137.34,22.38Z"/><path class="cls-1" d="M168.6,15.81v1.47a9.37,9.37,0,0,1,13.54-1.8,7,7,0,0,1,2.34,5.45,6,6,0,0,1-1.18,3.83,3.79,3.79,0,0,1-3.11,1.48,3.09,3.09,0,0,1-2.1-.75,2.34,2.34,0,0,1-.85-1.83,2.15,2.15,0,0,1,.64-1.53,2,2,0,0,1,1.5-.67,3.81,3.81,0,0,1,.7.16,2.69,2.69,0,0,0,.32-1.18A3.2,3.2,0,0,0,179,17.82a5.3,5.3,0,0,0-3.4-1.08,5.43,5.43,0,0,0-5.58,3.76,21.29,21.29,0,0,0-.86,7V31c0,2.39,0,3.74.06,4,.18,2,.74,3.06,1.67,3.06a5.8,5.8,0,0,0,1.46-.19,4.74,4.74,0,0,1,1-.13,1.51,1.51,0,0,1,1.74,1.69c0,1.23-.74,1.85-2.2,1.85h-.22c-.53,0-1.35-.07-2.44-.19a22.32,22.32,0,0,0-2.44-.19c-1.43,0-2.55,0-3.38.11l-3,.27c-1.47,0-2.2-.63-2.2-1.88s.69-1.66,2.06-1.66a4.2,4.2,0,0,1,.81,0L163,38a5,5,0,0,0,.76.11c.9,0,1.39-.82,1.46-2.47V32.89L165,20.71c-.11-2.11-.64-3.16-1.61-3.16a7,7,0,0,0-1.18.13,7.16,7.16,0,0,1-1.18.14c-1.18,0-1.77-.57-1.77-1.69s.77-1.85,2.31-1.85a13.92,13.92,0,0,1,1.61.13,14.33,14.33,0,0,0,1.6.14,11.63,11.63,0,0,0,1.4-.14,3.42,3.42,0,0,1,1-.13C168.14,14.28,168.6,14.79,168.6,15.81Z"/><path class="cls-1" d="M199.17,42a11.32,11.32,0,0,1-9-3.89q-3.37-3.88-3.38-10.43t3.41-10.43a11.53,11.53,0,0,1,9.14-3.88,11.71,11.71,0,0,1,9.22,3.8q3.39,3.81,3.38,10.35T208.45,38A11.74,11.74,0,0,1,199.17,42Zm.29-25.09a7.21,7.21,0,0,0-5.91,2.62c-1.44,1.76-2.23,4.24-2.37,7.46v.69q0,5,2.12,7.91a7,7,0,0,0,5.95,2.87,7.35,7.35,0,0,0,6.16-2.87q2.24-2.87,2.23-8Q207.64,16.91,199.46,16.91Z"/><path class="cls-1" d="M224.32,15.83v1.72a9.56,9.56,0,0,1,8.2-4.18,10.63,10.63,0,0,1,8.53,3.7c2.11,2.46,3.16,5.81,3.16,10q0,6.81-3.35,10.86a11.06,11.06,0,0,1-9,4,9.62,9.62,0,0,1-7.56-3.27v4.45a17.75,17.75,0,0,0,.11,2.63c.21,1.11.73,1.66,1.55,1.66a5.72,5.72,0,0,0,1.13-.16,5.64,5.64,0,0,1,1.12-.16A1.54,1.54,0,0,1,230,48.92c0,1.18-.75,1.77-2.24,1.77a20.3,20.3,0,0,1-2.41-.21,27.4,27.4,0,0,0-3.53-.17,17.82,17.82,0,0,0-2.13.11c-1.43.18-2.37.27-2.84.27a2.31,2.31,0,0,1-1.55-.56,1.69,1.69,0,0,1-.64-1.29c0-1.13.6-1.69,1.81-1.69a6.1,6.1,0,0,1,1,.14,7.53,7.53,0,0,0,1.33.18,1.17,1.17,0,0,0,1.24-1,41.17,41.17,0,0,0,.3-5.82V19.91c0-1.65-.5-2.47-1.38-2.47a5.21,5.21,0,0,0-1.15.19,5.15,5.15,0,0,1-1.19.19c-1.31,0-2-.59-2-1.77s.79-1.72,2.36-1.72c.4,0,.82,0,1.29.06.89.07,1.55.1,2,.1s.79,0,1.4-.08,1.05-.08,1.34-.08C223.87,14.33,224.32,14.83,224.32,15.83Zm.8,6.55a24.72,24.72,0,0,0-.53,5.09c0,.14,0,.41-.06.8V29a16.8,16.8,0,0,0,.59,5.22,6.43,6.43,0,0,0,2.35,2.93,7.87,7.87,0,0,0,10.33-1.53q2.12-2.82,2.12-8,0-10.72-7.64-10.72a7.32,7.32,0,0,0-4.6,1.55A6.76,6.76,0,0,0,225.12,22.38Z"/><path class="cls-1" d="M260.62,42a11.33,11.33,0,0,1-9-3.89q-3.37-3.88-3.37-10.43t3.4-10.43a11.55,11.55,0,0,1,9.15-3.88,11.72,11.72,0,0,1,9.22,3.8q3.38,3.81,3.38,10.35T269.9,38A11.73,11.73,0,0,1,260.62,42Zm.3-25.09A7.25,7.25,0,0,0,255,19.53c-1.43,1.76-2.22,4.24-2.37,7.46v.69q0,5,2.13,7.91a7,7,0,0,0,5.94,2.87,7.35,7.35,0,0,0,6.16-2.87q2.24-2.87,2.24-8Q269.1,16.91,260.92,16.91Z"/><path class="cls-1" d="M288.85,13.37a9.46,9.46,0,0,1,6,1.87V15c0-1.32.57-2,1.71-2a1.55,1.55,0,0,1,1.77,1.72c0,.22,0,.75-.09,1.61a12.88,12.88,0,0,0-.18,2.14c0,.43.05,1.06.14,1.88a18.37,18.37,0,0,1,.13,1.88q0,2-1.74,2a1.56,1.56,0,0,1-1.74-1.72V20.82A3.46,3.46,0,0,0,293,18.06a7.71,7.71,0,0,0-4.23-1.15,6.69,6.69,0,0,0-4.15,1.26,3.79,3.79,0,0,0-1.67,3.13q0,3.43,4.74,4.08l3.12.43q9.13,1.23,9.14,7.56A7.67,7.67,0,0,1,297,39.62a11.85,11.85,0,0,1-7.7,2.38,12.22,12.22,0,0,1-7.7-2.52v1c0,1.29-.61,1.93-1.82,1.93s-2-.73-2-2.2a26.18,26.18,0,0,0,.32-2.79,9.47,9.47,0,0,0,.11-1.5,13.11,13.11,0,0,0-.21-2.41,9.52,9.52,0,0,1-.22-1.77c0-1.25.57-1.88,1.72-1.88.75,0,1.22.18,1.42.54a8.25,8.25,0,0,1,.35,2.84A4.43,4.43,0,0,0,283.68,37a11.38,11.38,0,0,0,6,1.44A6.79,6.79,0,0,0,294,37.12a4.1,4.1,0,0,0,1.72-3.38q0-3.65-5.79-4.23a23.37,23.37,0,0,1-8.42-2.17q-2.9-1.59-2.9-5.55a7.52,7.52,0,0,1,2.83-6.09A11.21,11.21,0,0,1,288.85,13.37Z"/><g class="cls-2"><path class="cls-3" d="M215.54,77.15c-2,.44-3.94,1.25-5.91,1.26-45.19.07-90.38-.11-135.56.2-8.71.06-17.41,2-26.08,3.06-.13.53,0-.1.18-.65a23,23,0,0,1,1.28-2.27c-8.54-.92-15.79,2.59-23.27,5.8-.22-1-.41-1.91-.78-3.63-3,2.58-5.83,4.65-8.34,7.19-4.56,4.64-9.62,5.68-13.65,2.41C.26,88-.88,82.35.72,77.31,2.1,73,5.36,70.53,8.85,71.61c2.54.79,4.27,2.92,4.28,6.5,0,3.16-1.34,5-4.52,5.84.79-1.7,1.4-2.49,1.51-3.39.13-1.07.14-2.66-.36-3.24-.67-.78-2.5-1.45-2.74-1.06-1.18,1.9-2.56,4.1-2.73,6.34C4.18,84,5.86,86.49,7.11,87a5.88,5.88,0,0,0,5.2-.6c3.89-2.65,7.54-5.91,11.38-9a17.93,17.93,0,0,1-3.3-3.27A9.84,9.84,0,0,1,19.44,69c5,7.82,11.43,5.94,17.92,5.57-.14-1.4-.25-2.48-.41-4.07,12.57,7.71,25.65,4.16,38.38,4.28,45.43.42,90.86.15,136.29.22,1.47,0,2.95.83,4.42,1.27C215.88,76.55,215.71,76.85,215.54,77.15Z"/><path class="cls-3" d="M248.65,76.21c1.25-.43,2.49-1.22,3.73-1.23,24.28-.07,48.57.11,72.85-.19,5.39-.07,10.78-1.77,16.29-2.73,0,.09-.06,1.08-.14,2.48,6.47.51,13.05,2.16,18-6.69,1,5.93-1.91,7.38-4.39,9.47,4.15,3.29,8,7,12.25,9.51s8.13-.52,7.31-5.62c-.31-1.91-1.79-3.7-3.05-5.07-.35-.39-2.52.7-2.62,1.4-.25,1.72.22,3.62.49,6.31-1.13-1.07-2.9-1.9-3.14-3.2a11.62,11.62,0,0,1,.63-6.43,5.08,5.08,0,0,1,8.06-1.63c3.5,2.89,5,9.18,3.4,13.92-1.55,4.5-6.66,7.38-10.81,5.42-2.65-1.26-5-3.63-7.42-5.52-2.15-1.66-4.28-3.35-6.87-5.37-.17,1.65-.26,2.56-.37,3.71-7.33-3.46-14.7-6.6-23.12-6.17l1.87,4.25c-25.43-8-51.09-2.94-76.53-4.41a35.21,35.21,0,0,1-5.55-1.18Z"/><path class="cls-3" d="M248.65,76.21l.89,1c-.39.4-.77,1.15-1.15,1.15q-16,.09-32,0c-.28,0-.54-.79-.81-1.21.18-.31.35-.61.51-.91.22-.13.44-.37.66-.37Z"/></g></svg>