<svg xmlns="http://www.w3.org/2000/svg" viewBox="0 0 189.03 58.21"><defs><style>.cls-1{fill:#666;}</style></defs><title>onglets</title><g id="accueil"><path class="cls-1" d="M28.48,38.74l-1.94-5.25a2.06,2.06,0,0,0-.67-1.07,3,3,0,0,0-1.42-.22H14.91a2.2,2.2,0,0,0-1.48.38,6.8,6.8,0,0,0-1,2l-1.56,4.12a3.4,3.4,0,0,0-.21,1.13c0,1.15.69,1.72,2.09,1.72.36,0,.87,0,1.53-.11s1.15-.11,1.47-.11c1.47,0,2.2.63,2.2,1.88S17.11,45,15.5,45a9.16,9.16,0,0,1-1.18-.11l-2.68-.29a24.3,24.3,0,0,0-2.47-.08c-1.25,0-2.13,0-2.63.08l-2.25.24a22,22,0,0,1-2.2.16C.7,45,0,44.43,0,43.25s.68-1.88,2-1.88a.84.84,0,0,1,.64.22h.7a2.49,2.49,0,0,0,2.2-1.13,13.79,13.79,0,0,0,1.07-2.53l10-27.06A3.3,3.3,0,0,1,20,8.61a3.16,3.16,0,0,1,3.27,2.25l9.6,26.6a10.6,10.6,0,0,0,1.66,3.32,2.79,2.79,0,0,0,2.15.81,2.41,2.41,0,0,0,.64-.07l1.5-.15q2,0,2,1.77c0,1.25-.68,1.88-2,1.88a15.22,15.22,0,0,1-1.55-.11,49.85,49.85,0,0,0-5-.37q-2,0-6.44.38c-.75.07-1.32.1-1.71.1-1.43,0-2.15-.61-2.15-1.82s.79-1.83,2.36-1.83a14.14,14.14,0,0,1,1.42.11c.63.07,1.1.11,1.42.11,1.18,0,1.77-.49,1.77-1.45A7.63,7.63,0,0,0,28.48,38.74ZM24.61,27.81,19.79,13,14.85,27.81a2,2,0,0,0-.1.37c0,.32.27.48.8.48h8.53c.43,0,.64-.14.64-.43A1.4,1.4,0,0,0,24.61,27.81Z"/><path class="cls-1" d="M57.32,27.11c0-1.43.9-2.25,2.69-2.47a4.17,4.17,0,0,0-1.81-2.95,6.78,6.78,0,0,0-4-1.07,7.16,7.16,0,0,0-6,2.95A12.51,12.51,0,0,0,46,31.4q0,5,2.12,7.91A6.93,6.93,0,0,0,54,42.18a6.61,6.61,0,0,0,4.12-1.34,6.8,6.8,0,0,0,2.39-3.7c.36-1.26.57-2,.65-2.15a1.86,1.86,0,0,1,1.72-1.07A2,2,0,0,1,65,36a8,8,0,0,1-.85,3.22,11.49,11.49,0,0,1-2,3.11,10.75,10.75,0,0,1-8.21,3.38,11.12,11.12,0,0,1-8.82-3.87Q41.73,38,41.72,31.72q0-6.64,3.46-10.65a11.56,11.56,0,0,1,9.2-4,10.9,10.9,0,0,1,7.13,2.33,7.36,7.36,0,0,1,2.84,5.93,4.88,4.88,0,0,1-1.1,3.27,3.52,3.52,0,0,1-2.81,1.29,3.17,3.17,0,0,1-2.23-.81A2.57,2.57,0,0,1,57.32,27.11Z"/><path class="cls-1" d="M84.67,27.11c0-1.43.9-2.25,2.68-2.47a4.16,4.16,0,0,0-1.8-2.95,6.78,6.78,0,0,0-4-1.07,7.16,7.16,0,0,0-6,2.95,12.51,12.51,0,0,0-2.26,7.83q0,5,2.12,7.91a6.93,6.93,0,0,0,5.89,2.87,6.61,6.61,0,0,0,4.12-1.34,6.8,6.8,0,0,0,2.39-3.7c.36-1.26.57-2,.64-2.15a1.88,1.88,0,0,1,1.72-1.07A2,2,0,0,1,92.34,36a7.91,7.91,0,0,1-.86,3.22,11.24,11.24,0,0,1-2,3.11,10.75,10.75,0,0,1-8.21,3.38,11.09,11.09,0,0,1-8.82-3.87Q69.07,38,69.07,31.72q0-6.64,3.46-10.65a11.55,11.55,0,0,1,9.19-4,10.93,10.93,0,0,1,7.14,2.33,7.36,7.36,0,0,1,2.84,5.93,4.88,4.88,0,0,1-1.1,3.27,3.53,3.53,0,0,1-2.82,1.29,3.16,3.16,0,0,1-2.22-.81A2.57,2.57,0,0,1,84.67,27.11Z"/><path class="cls-1" d="M118.35,43.46V41.8q-2.84,3.91-8.42,3.92-6.33,0-8.79-3.92a8.07,8.07,0,0,1-1.18-4c0-.75-.06-2.32-.06-4.72V28.61q0-7.35-1.57-7.35c-.21,0-.56,0-1,.08a8.76,8.76,0,0,1-1.08.08q-1.89,0-1.89-1.74c0-1.13.76-1.69,2.3-1.69a13.52,13.52,0,0,1,1.58.14,15.89,15.89,0,0,0,1.59.13,13.74,13.74,0,0,0,1.66-.16l.91-.11c1.11,0,1.66.68,1.66,2v4.61l-.16,4V32.1a21.28,21.28,0,0,0,.75,6.7q1.23,3.38,5.9,3.38a7.84,7.84,0,0,0,4.08-1,5.64,5.64,0,0,0,2.46-2.76c.58-1.39.86-4,.86-7.94V24c-.18-1.72-.64-2.58-1.39-2.58h-1.61c-1.25,0-1.88-.53-1.88-1.61s.7-1.82,2.09-1.82c.32,0,.82,0,1.48.11s1.15.11,1.47.11a11.84,11.84,0,0,0,1.29-.11,11.84,11.84,0,0,1,1.29-.11c1.07,0,1.61.58,1.61,1.72a5.12,5.12,0,0,1-.11,1.18,49.81,49.81,0,0,0-.27,6v8.28c0,2.19,0,3.4,0,3.66.18,1.89.68,2.84,1.5,2.84a7.75,7.75,0,0,0,1.08-.1,7.84,7.84,0,0,1,1.07-.11c1.22,0,1.82.58,1.82,1.74s-.75,1.8-2.25,1.8a13.28,13.28,0,0,1-1.39-.11c-.9-.11-1.45-.16-1.67-.16l-1.12.11a4.63,4.63,0,0,1-1.13.16Q118.35,45,118.35,43.46Z"/><path class="cls-1" d="M154,29a6.48,6.48,0,0,1-.27,2.48q-.27.45-1.56.45H135a1.51,1.51,0,0,0-.91.19.78.78,0,0,0-.22.62,9.73,9.73,0,0,0,2.42,6.74,8,8,0,0,0,10.35,1.41,5.93,5.93,0,0,0,2.56-3.27l.48-1.56a1.67,1.67,0,0,1,1.77-1.28,1.78,1.78,0,0,1,2,2c0,2.33-1.19,4.39-3.54,6.2a13,13,0,0,1-8.05,2.71,11.31,11.31,0,0,1-8.95-3.78c-2.22-2.53-3.33-5.91-3.33-10.17s1.18-7.9,3.54-10.61a11.62,11.62,0,0,1,9.22-4.08,11.11,11.11,0,0,1,8.32,3.37A11.75,11.75,0,0,1,154,29Zm-19.47-1.36c0,.51.4.76,1.18.76h12.87c.75,0,1.13-.25,1.13-.76a6.64,6.64,0,0,0-2.16-4.93,7,7,0,0,0-5-2.09A8.12,8.12,0,0,0,137,22.79,6.36,6.36,0,0,0,134.49,27.64Z"/><path class="cls-1" d="M166.61,29.25v7c0,1.79,0,2.85.06,3.17.17,1.61.66,2.41,1.44,2.41a8.47,8.47,0,0,0,1.35-.23,2.61,2.61,0,0,1,.8-.09q2,0,2,1.74a1.57,1.57,0,0,1-.68,1.27,2.65,2.65,0,0,1-1.69.53,21,21,0,0,1-2.61-.24,21.28,21.28,0,0,0-2.61-.24,26,26,0,0,0-3.12.21,27.5,27.5,0,0,1-2.8.27c-1.43,0-2.15-.6-2.15-1.8s.61-1.74,1.84-1.74a8.54,8.54,0,0,1,1.27.13,8.86,8.86,0,0,0,1.27.14c.87,0,1.39-1.15,1.57-3.43V24.59c-.18-2.26-.72-3.38-1.62-3.38a5.36,5.36,0,0,0-1.22.19,5.77,5.77,0,0,1-1.16.18q-2,0-2-1.71c0-1.22.78-1.83,2.36-1.83a12,12,0,0,1,1.45.06c1.14.14,1.87.21,2.2.21a9.49,9.49,0,0,0,1.31-.13,9.75,9.75,0,0,1,1.31-.14q1.56,0,1.56,2.1c0,.14,0,.35-.05.64s0,.5,0,.64-.06,1.4-.09,3.33C166.63,26.21,166.61,27.72,166.61,29.25Zm-2.79-14a2.87,2.87,0,0,1-2.11-.88,2.9,2.9,0,0,1-.89-2.12,2.8,2.8,0,0,1,.89-2.09,3,3,0,0,1,4.23,0,2.8,2.8,0,0,1,.89,2.09,3,3,0,0,1-3,3Z"/><path class="cls-1" d="M183,22.39V39.07c0,1.82.52,2.73,1.46,2.73a7.25,7.25,0,0,0,1.35-.23,8.25,8.25,0,0,1,.87-.09,1.59,1.59,0,0,1,1.79,1.8q0,1.74-2.19,1.74a25.43,25.43,0,0,1-2.73-.22,27.87,27.87,0,0,0-2.88-.21,23.14,23.14,0,0,0-2.57.21,21.27,21.27,0,0,1-2.51.22h-.27c-1.49,0-2.24-.63-2.24-1.9,0-1.09.61-1.64,1.84-1.64h.38a2.91,2.91,0,0,0,.48.06,14.06,14.06,0,0,0,1.57.26,1.13,1.13,0,0,0,1.22-.83,23.66,23.66,0,0,0,.3-4.34l0-3.76V15a15.79,15.79,0,0,0-.16-2.16,1.49,1.49,0,0,0-1.5-1.23c-.11,0-.57.07-1.39.21a6,6,0,0,1-1,.11c-1.22,0-1.82-.58-1.82-1.74s.71-1.8,2.14-1.8a7.36,7.36,0,0,1,1,.06l1.29.19a10.66,10.66,0,0,0,1.45.12,10.86,10.86,0,0,0,1.61-.18,9.7,9.7,0,0,1,1.6-.19c.83,0,1.24.52,1.24,1.55a4,4,0,0,1-.06.81Q183,14.83,183,22.39Z"/></g></svg>