<svg xmlns="http://www.w3.org/2000/svg" viewBox="0 0 379 92.55"><defs><style>.cls-1{fill:#666;}.cls-2{opacity:0.68;}.cls-3{fill:#262626;}</style></defs><title>onglets</title><g id="contact"><path class="cls-1" d="M108,4.14a12,12,0,0,1,9.71,4.56V7.49a2.64,2.64,0,0,1-.11-.38c-.07-.81-.1-1.17-.1-1.1,0-1.24.55-1.87,1.66-1.87s1.77.75,1.77,2.26c0,.28,0,1.14-.11,2.57-.18,1.79-.27,3-.27,3.7,0,1,.06,1.95.16,2.95l.22,2v.53c0,1.61-.65,2.42-1.93,2.42s-2.08-.77-2-2.29V16.4a7.87,7.87,0,0,0-2.41-6.22,9.16,9.16,0,0,0-6.58-2.39,9.72,9.72,0,0,0-8.29,4.08q-3,4.08-3,11.28,0,7.37,3.07,11.47a10.91,10.91,0,0,0,14,2.66A8,8,0,0,0,117,33.45a11.23,11.23,0,0,0,.64-4.2c0-1.65.69-2.48,2.06-2.48s2.23.83,2.23,2.47a12.14,12.14,0,0,1-4,9.38,14.5,14.5,0,0,1-10.24,3.65,14.4,14.4,0,0,1-11.56-5.09q-4.31-5.1-4.31-13.57,0-8.74,4.42-14.1A14.37,14.37,0,0,1,108,4.14Z"/><path class="cls-1" d="M138.41,42a11.33,11.33,0,0,1-9-3.89Q126,34.23,126,27.68t3.4-10.43a11.54,11.54,0,0,1,9.14-3.88,11.73,11.73,0,0,1,9.23,3.8q3.38,3.81,3.38,10.35T147.69,38A11.73,11.73,0,0,1,138.41,42Zm.3-25.09a7.23,7.23,0,0,0-5.92,2.62c-1.43,1.76-2.22,4.24-2.37,7.46v.69q0,5,2.13,7.91a7,7,0,0,0,5.94,2.87,7.34,7.34,0,0,0,6.16-2.87q2.23-2.87,2.24-8Q146.89,16.91,138.71,16.91Z"/><path class="cls-1" d="M163.56,15.91v1.53a10.41,10.41,0,0,1,8.58-4.07,10.84,10.84,0,0,1,5.47,1.47,7.72,7.72,0,0,1,3.49,3.67,12.77,12.77,0,0,1,.75,4.78V33.48c0,1.53,0,2.44.05,2.73.18,1.22.66,1.82,1.45,1.82a7.65,7.65,0,0,0,1.26-.13,7.37,7.37,0,0,1,1.1-.13,1.72,1.72,0,0,1,1.21.48,1.55,1.55,0,0,1,.51,1.18,1.69,1.69,0,0,1-.65,1.34,2.32,2.32,0,0,1-1.55.54,23.85,23.85,0,0,1-2.47-.22,26.57,26.57,0,0,0-3.22-.21,20.87,20.87,0,0,0-2.3.1c-1.79.22-2.74.33-2.84.33-1.43,0-2.15-.63-2.15-1.88s.62-1.66,1.86-1.66a5.17,5.17,0,0,1,1,.1,8.51,8.51,0,0,0,1.32.22c.87,0,1.34-1,1.42-3V25.06a18.82,18.82,0,0,0-.27-3.92A5.18,5.18,0,0,0,175.48,18a6.85,6.85,0,0,0-4-1.24q-4.28,0-6.14,3.06c-.86,1.4-1.28,3.77-1.28,7.13v7.14a10.41,10.41,0,0,0,.32,3.21,1.17,1.17,0,0,0,1.18.86,5,5,0,0,0,1.18-.19,5.5,5.5,0,0,1,1.23-.18c1.11,0,1.66.6,1.66,1.79s-.71,1.75-2.14,1.75q-.43,0-2.79-.33a20.87,20.87,0,0,0-2.63-.16,26.28,26.28,0,0,0-3,.22c-1.58.18-2.47.27-2.68.27q-2.25,0-2.25-1.83a1.52,1.52,0,0,1,1.74-1.71,5.48,5.48,0,0,1,1,.16,7.31,7.31,0,0,0,1.45.16c1.09,0,1.66-1,1.69-3.11V20.66a6.65,6.65,0,0,0-.46-2.49,1.27,1.27,0,0,0-1.23-.67,5.55,5.55,0,0,0-1.12.16,6.27,6.27,0,0,1-1.12.16c-1.31,0-2-.58-2-1.75s.8-1.79,2.41-1.79a2.58,2.58,0,0,1,.53.05l2,.22a7.36,7.36,0,0,0,1.5-.14l1.45-.13C163,14.28,163.56,14.82,163.56,15.91Z"/><path class="cls-1" d="M204.43,33.69V30.26c0-1.47.67-2.2,1.93-2.2s1.87.82,1.87,2.47c0,3.89-.49,6.61-1.49,8.15q-2,3.1-6.66,3.11-4.26,0-6.07-2.74c-.88-1.32-1.33-3.57-1.33-6.75V19.43c0-.75-.35-1.13-1-1.13h-1.76a2,2,0,0,1-1.45-.56,1.91,1.91,0,0,1,0-2.71,1.7,1.7,0,0,1,1.26-.59h2.09c.61,0,.91-.34.91-1V7.9a1.83,1.83,0,0,1,2.09-2c1.29,0,1.93.68,1.93,2v5.73c0,.54.33.81,1,.81h5.84c1.36,0,2,.62,2,1.88s-.73,2-2.2,2h-5.9c-.5,0-.75.38-.75,1.13V32.62q0,5.63,3.76,5.63C203,38.25,204.32,36.73,204.43,33.69Z"/><path class="cls-1" d="M234,41.79c-2.94,0-4.74-1.27-5.42-3.81q-2.73,4-8.58,4a10.54,10.54,0,0,1-6.94-2.14,7.06,7.06,0,0,1-2.61-5.74,7,7,0,0,1,3.81-6.54,9.9,9.9,0,0,1,2.5-1c.69-.16,2.1-.36,4.21-.61,3-.33,5-.77,5.87-1.35a3.43,3.43,0,0,0,1.36-3.16A4.23,4.23,0,0,0,226.71,18a6.53,6.53,0,0,0-4.27-1.26,8.2,8.2,0,0,0-4.5,1.34c-.54.36-.81.74-.81,1.13,0,.14.17.32.49.53a2.1,2.1,0,0,1,.75,1.83,2.29,2.29,0,0,1-.78,1.77,2.84,2.84,0,0,1-2,.69,3.13,3.13,0,0,1-2.33-1,3.24,3.24,0,0,1-.94-2.36,6.23,6.23,0,0,1,3-5.15,12,12,0,0,1,7.21-2.14q9.76,0,9.76,9.36V33.54a22.89,22.89,0,0,0,.11,3.05c.21,1.25.82,1.87,1.82,1.87,1.25,0,1.88-1.13,1.88-3.41v-2.6c0-1.14.54-1.71,1.63-1.71s1.75.86,1.75,2.58v3.32Q239.38,41.79,234,41.79Zm-6-10.67V27.31a7,7,0,0,1-2.48,1.5,24.24,24.24,0,0,1-4.68.75q-6.09.6-6.09,4.51a3.9,3.9,0,0,0,1.48,3.21,6.18,6.18,0,0,0,4,1.18,7.89,7.89,0,0,0,5.66-2A7.26,7.26,0,0,0,228,31.12Z"/><path class="cls-1" d="M256.82,23.39c0-1.43.89-2.25,2.68-2.46A4.17,4.17,0,0,0,257.7,18a6.76,6.76,0,0,0-4-1.07,7.18,7.18,0,0,0-6,2.94,12.6,12.6,0,0,0-2.26,7.83q0,5,2.13,7.91a6.88,6.88,0,0,0,5.89,2.87,6.54,6.54,0,0,0,4.11-1.34,6.73,6.73,0,0,0,2.39-3.7c.36-1.25.58-2,.65-2.14a1.86,1.86,0,0,1,1.72-1.07,2,2,0,0,1,2.1,2.09,8,8,0,0,1-.86,3.21,10.9,10.9,0,0,1-2,3.11,10.69,10.69,0,0,1-8.2,3.38,11.11,11.11,0,0,1-8.83-3.86q-3.34-3.86-3.35-10.13,0-6.66,3.46-10.65a11.57,11.57,0,0,1,9.2-4A10.85,10.85,0,0,1,261,15.7a7.34,7.34,0,0,1,2.84,5.92,4.84,4.84,0,0,1-1.1,3.28,3.55,3.55,0,0,1-2.81,1.28,3.16,3.16,0,0,1-2.23-.8A2.58,2.58,0,0,1,256.82,23.39Z"/><path class="cls-1" d="M283.47,33.69V30.26c0-1.47.68-2.2,1.93-2.2s1.88.82,1.88,2.47q0,5.84-1.49,8.15-2,3.1-6.66,3.11c-2.84,0-4.87-.91-6.07-2.74q-1.33-2-1.33-6.75V19.43c0-.75-.35-1.13-1.05-1.13h-1.75a2,2,0,0,1-1.46-.56,1.86,1.86,0,0,1-.57-1.37,1.9,1.9,0,0,1,.56-1.34,1.74,1.74,0,0,1,1.26-.59h2.09c.61,0,.92-.34.92-1V7.9a1.82,1.82,0,0,1,2.09-2c1.28,0,1.93.68,1.93,2v5.73q0,.81,1,.81h5.85c1.36,0,2,.62,2,1.88s-.74,2-2.2,2h-5.9c-.5,0-.75.38-.75,1.13V32.62q0,5.63,3.75,5.63T283.47,33.69Z"/><g class="cls-2"><path class="cls-3" d="M215.54,77.15c-2,.44-3.94,1.25-5.91,1.26-45.19.07-90.38-.11-135.56.2-8.71.06-17.41,2-26.08,3.06-.13.53,0-.1.18-.65a23,23,0,0,1,1.28-2.27c-8.54-.92-15.79,2.59-23.27,5.8-.22-1-.41-1.91-.78-3.63-3,2.58-5.83,4.65-8.34,7.19-4.56,4.64-9.62,5.68-13.65,2.41C.26,88-.88,82.35.72,77.31,2.1,73,5.36,70.53,8.85,71.61c2.54.79,4.27,2.92,4.28,6.5,0,3.16-1.34,5-4.52,5.84.79-1.7,1.4-2.49,1.51-3.39.13-1.07.14-2.66-.36-3.24-.67-.78-2.5-1.45-2.74-1.06-1.18,1.9-2.56,4.1-2.73,6.34C4.18,84,5.86,86.49,7.11,87a5.88,5.88,0,0,0,5.2-.6c3.89-2.65,7.54-5.91,11.38-9a17.93,17.93,0,0,1-3.3-3.27A9.84,9.84,0,0,1,19.44,69c5,7.82,11.43,5.94,17.92,5.57-.14-1.4-.25-2.48-.41-4.07,12.57,7.71,25.65,4.16,38.38,4.28,45.43.42,90.86.15,136.29.22,1.47,0,2.95.83,4.42,1.27C215.88,76.55,215.71,76.85,215.54,77.15Z"/><path class="cls-3" d="M248.65,76.21c1.25-.43,2.49-1.22,3.73-1.23,24.28-.07,48.57.11,72.85-.19,5.39-.07,10.78-1.77,16.29-2.73,0,.09-.06,1.08-.14,2.48,6.47.51,13.05,2.16,18-6.69,1,5.93-1.91,7.38-4.39,9.47,4.15,3.29,8,7,12.25,9.51s8.13-.52,7.31-5.62c-.31-1.91-1.79-3.7-3.05-5.07-.35-.39-2.52.7-2.62,1.4-.25,1.72.22,3.62.49,6.31-1.13-1.07-2.9-1.9-3.14-3.2a11.62,11.62,0,0,1,.63-6.43,5.08,5.08,0,0,1,8.06-1.63c3.5,2.89,5,9.18,3.4,13.92-1.55,4.5-6.66,7.38-10.81,5.42-2.65-1.26-5-3.63-7.42-5.52-2.15-1.66-4.28-3.35-6.87-5.37-.17,1.65-.26,2.56-.37,3.71-7.33-3.46-14.7-6.6-23.12-6.17l1.87,4.25c-25.43-8-51.09-2.94-76.53-4.41a35.21,35.21,0,0,1-5.55-1.18Z"/><path class="cls-3" d="M248.65,76.21l.89,1c-.39.4-.77,1.15-1.15,1.15q-16,.09-32,0c-.28,0-.54-.79-.81-1.21.18-.31.35-.61.51-.91.22-.13.44-.37.66-.37Z"/></g></g></svg>