<svg xmlns="http://www.w3.org/2000/svg" viewBox="0 0 379 40"><defs><style>.cls-1{opacity:0.68;}.cls-2{fill:#262626;}</style></defs><title>onglets</title><g id="barre_contact"><g class="cls-1"><path class="cls-2" d="M215.54,10.32c-2,.44-3.94,1.25-5.91,1.26-45.19.07-90.38-.11-135.56.2-8.71.06-17.41,2-26.08,3.06-.13.53,0-.1.18-.66a24.61,24.61,0,0,1,1.28-2.26c-8.54-.92-15.79,2.59-23.27,5.8-.22-1-.41-1.91-.78-3.63-3,2.58-5.83,4.65-8.34,7.19C12.5,25.92,7.44,27,3.41,23.68.26,21.13-.88,15.52.72,10.48,2.1,6.12,5.36,3.7,8.85,4.78c2.54.79,4.27,2.92,4.28,6.5,0,3.16-1.34,5-4.52,5.84.79-1.7,1.4-2.49,1.51-3.39.13-1.07.14-2.66-.36-3.24C9.09,9.71,7.26,9,7,9.42c-1.18,1.91-2.56,4.11-2.73,6.35-.11,1.41,1.57,3.89,2.82,4.41a5.88,5.88,0,0,0,5.2-.6c3.89-2.66,7.54-5.91,11.38-9a17.93,17.93,0,0,1-3.3-3.27,9.86,9.86,0,0,1-.95-5.16c5,7.82,11.43,5.94,17.92,5.57L37,3.64C49.52,11.36,62.6,7.81,75.33,7.92c45.43.43,90.86.16,136.29.23,1.47,0,2.95.83,4.42,1.27C215.88,9.72,215.71,10,215.54,10.32Z"/><path class="cls-2" d="M248.65,9.37c1.25-.42,2.49-1.22,3.73-1.22,24.28-.08,48.57.11,72.85-.19,5.39-.07,10.78-1.77,16.29-2.73,0,.08-.06,1.08-.14,2.48,6.47.5,13.05,2.16,18-6.69,1,5.93-1.91,7.38-4.39,9.47,4.15,3.28,8,7,12.25,9.51s8.13-.53,7.31-5.62c-.31-1.92-1.79-3.7-3.05-5.07-.35-.39-2.52.7-2.62,1.4-.25,1.72.22,3.62.49,6.31-1.13-1.07-2.9-1.9-3.14-3.2a11.62,11.62,0,0,1,.63-6.43,5.08,5.08,0,0,1,8.06-1.63c3.5,2.88,5,9.18,3.4,13.92-1.55,4.5-6.66,7.38-10.81,5.41-2.65-1.25-5-3.62-7.42-5.51-2.15-1.66-4.28-3.35-6.87-5.37-.17,1.65-.26,2.56-.37,3.71-7.33-3.46-14.7-6.6-23.12-6.17L331.62,16c-25.43-8-51.09-2.94-76.53-4.41a36.37,36.37,0,0,1-5.55-1.18Z"/><path class="cls-2" d="M248.65,9.37l.89,1c-.39.4-.77,1.14-1.15,1.15q-16,.07-32,0c-.28,0-.54-.79-.81-1.21.18-.31.35-.61.51-.91.22-.13.44-.37.66-.37Z"/></g></g></svg>