<svg xmlns="http://www.w3.org/2000/svg" viewBox="0 0 379 24.71"><defs><style>.cls-1{opacity:0.68;}.cls-2{fill:#262626;}</style></defs><title>onglets</title><g id="barre_about"><g class="cls-1"><path class="cls-2" d="M215.54,9.3c-2,.44-3.94,1.26-5.91,1.26-45.19.07-90.38-.11-135.56.2-8.71.06-17.41,2-26.08,3.06-.13.53,0-.1.18-.65a24.26,24.26,0,0,1,1.28-2.27c-8.54-.91-15.79,2.59-23.27,5.81-.22-1-.41-1.91-.78-3.64-3,2.59-5.83,4.65-8.34,7.2C12.5,24.91,7.44,26,3.41,22.67.26,20.11-.88,14.51.72,9.46,2.1,5.1,5.36,2.68,8.85,3.76c2.54.79,4.27,2.92,4.28,6.5,0,3.16-1.34,5-4.52,5.85.79-1.7,1.4-2.5,1.51-3.39.13-1.07.14-2.66-.36-3.24C9.09,8.69,7.26,8,7,8.41c-1.18,1.9-2.56,4.1-2.73,6.34-.11,1.41,1.57,3.9,2.82,4.42a5.91,5.91,0,0,0,5.2-.61c3.89-2.65,7.54-5.91,11.38-9a18.19,18.19,0,0,1-3.3-3.26,9.88,9.88,0,0,1-.95-5.17C24.47,9,30.87,7.07,37.36,6.7L37,2.63C49.52,10.34,62.6,6.79,75.33,6.91c45.43.42,90.86.15,136.29.23,1.47,0,2.95.82,4.42,1.26C215.88,8.7,215.71,9,215.54,9.3Z"/><path class="cls-2" d="M248.65,8.36c1.25-.43,2.49-1.22,3.73-1.22,24.28-.08,48.57.1,72.85-.2,5.39-.07,10.78-1.76,16.29-2.73,0,.09-.06,1.08-.14,2.49,6.47.5,13.05,2.15,18-6.7,1,5.94-1.91,7.38-4.39,9.48,4.15,3.28,8,7,12.25,9.51s8.13-.53,7.31-5.63c-.31-1.91-1.79-3.69-3.05-5.07-.35-.39-2.52.7-2.62,1.4-.25,1.73.22,3.62.49,6.31-1.13-1.07-2.9-1.9-3.14-3.19a11.65,11.65,0,0,1,.63-6.44,5.08,5.08,0,0,1,8.06-1.63c3.5,2.89,5,9.18,3.4,13.93-1.55,4.49-6.66,7.38-10.81,5.41-2.65-1.25-5-3.62-7.42-5.52-2.15-1.65-4.28-3.34-6.87-5.37-.17,1.65-.26,2.56-.37,3.71-7.33-3.46-14.7-6.59-23.12-6.16L331.62,15c-25.43-8-51.09-2.94-76.53-4.4a36.41,36.41,0,0,1-5.55-1.19Z"/><path class="cls-2" d="M248.65,8.36l.89,1c-.39.4-.77,1.15-1.15,1.15q-16,.09-32,0c-.28,0-.54-.78-.81-1.21.18-.31.35-.61.51-.91.22-.12.44-.37.66-.36Q232.68,8.18,248.65,8.36Z"/></g></g></svg>