<svg xmlns="http://www.w3.org/2000/svg" viewBox="0 0 379 92.55"><defs><style>.cls-1{fill:#666;}.cls-2{opacity:0.68;}.cls-3{fill:#262626;}</style></defs><title>onglets</title><g id="accueil"><path class="cls-1" d="M121.87,35l-1.93-5.25a2.1,2.1,0,0,0-.67-1.08,3.12,3.12,0,0,0-1.42-.21h-9.54a2.2,2.2,0,0,0-1.48.37,6.57,6.57,0,0,0-1,2L104.23,35a3.35,3.35,0,0,0-.21,1.13c0,1.14.69,1.71,2.09,1.71a15.25,15.25,0,0,0,1.53-.1,12.91,12.91,0,0,1,1.47-.11c1.47,0,2.2.63,2.2,1.88s-.8,1.77-2.41,1.77a9.16,9.16,0,0,1-1.18-.11L105,40.91a23.56,23.56,0,0,0-2.47-.09c-1.25,0-2.13,0-2.63.08l-2.25.24c-1,.11-1.73.17-2.2.17-1.39,0-2.09-.59-2.09-1.77s.68-1.88,2-1.88a.88.88,0,0,1,.64.21h.7A2.47,2.47,0,0,0,99,36.74a13.46,13.46,0,0,0,1.07-2.53L110,7.15a3.31,3.31,0,0,1,3.38-2.26,3.16,3.16,0,0,1,3.27,2.26l9.6,26.59a10.81,10.81,0,0,0,1.66,3.33,2.78,2.78,0,0,0,2.15.8,2,2,0,0,0,.64-.07l1.5-.14q2,0,2,1.77c0,1.25-.68,1.88-2,1.88a15.22,15.22,0,0,1-1.55-.11c-2.25-.25-3.93-.38-5-.38q-2,0-6.44.39c-.75.06-1.32.1-1.71.1-1.43,0-2.15-.61-2.15-1.83s.79-1.82,2.36-1.82a11.65,11.65,0,0,1,1.42.11,13.68,13.68,0,0,0,1.42.1q1.77,0,1.77-1.44A7,7,0,0,0,121.87,35ZM118,24.09l-4.82-14.8-4.94,14.8a2,2,0,0,0-.1.38c0,.32.27.48.8.48h8.53c.43,0,.64-.14.64-.43A2,2,0,0,0,118,24.09Z"/><path class="cls-1" d="M150.72,23.39c0-1.43.9-2.25,2.69-2.46A4.19,4.19,0,0,0,151.6,18a6.7,6.7,0,0,0-3.95-1.07,7.18,7.18,0,0,0-6,2.94,12.53,12.53,0,0,0-2.26,7.83q0,5,2.12,7.91a6.91,6.91,0,0,0,5.89,2.87,6.55,6.55,0,0,0,4.12-1.34,6.73,6.73,0,0,0,2.39-3.7c.36-1.25.57-2,.65-2.14a1.85,1.85,0,0,1,1.72-1.07,2,2,0,0,1,2.09,2.09,8,8,0,0,1-.85,3.21,11.33,11.33,0,0,1-2,3.11A10.72,10.72,0,0,1,147.29,42a11.11,11.11,0,0,1-8.82-3.86q-3.34-3.86-3.35-10.13,0-6.66,3.46-10.65a11.56,11.56,0,0,1,9.2-4,10.85,10.85,0,0,1,7.13,2.33,7.34,7.34,0,0,1,2.84,5.92,4.89,4.89,0,0,1-1.1,3.28,3.55,3.55,0,0,1-2.82,1.28,3.16,3.16,0,0,1-2.22-.8A2.59,2.59,0,0,1,150.72,23.39Z"/><path class="cls-1" d="M178.07,23.39c0-1.43.9-2.25,2.68-2.46A4.14,4.14,0,0,0,179,18,6.7,6.7,0,0,0,175,16.91a7.18,7.18,0,0,0-6,2.94,12.53,12.53,0,0,0-2.26,7.83q0,5,2.12,7.91a6.91,6.91,0,0,0,5.89,2.87,6.55,6.55,0,0,0,4.12-1.34,6.73,6.73,0,0,0,2.39-3.7c.36-1.25.57-2,.64-2.14a1.87,1.87,0,0,1,1.72-1.07,2.05,2.05,0,0,1,1.51.58,2.07,2.07,0,0,1,.59,1.51,7.87,7.87,0,0,1-.86,3.21,11.09,11.09,0,0,1-2,3.11A10.72,10.72,0,0,1,174.64,42a11.08,11.08,0,0,1-8.82-3.86q-3.34-3.86-3.35-10.13,0-6.66,3.46-10.65a11.55,11.55,0,0,1,9.19-4,10.87,10.87,0,0,1,7.14,2.33,7.34,7.34,0,0,1,2.84,5.92A4.89,4.89,0,0,1,184,24.9a3.55,3.55,0,0,1-2.82,1.28,3.16,3.16,0,0,1-2.22-.8A2.59,2.59,0,0,1,178.07,23.39Z"/><path class="cls-1" d="M211.75,39.75V38.09Q208.9,42,203.33,42q-6.33,0-8.79-3.91a8.14,8.14,0,0,1-1.18-4c0-.75-.06-2.33-.06-4.72V24.9q0-7.35-1.57-7.35c-.21,0-.56,0-1,.08s-.83.08-1.08.08q-1.89,0-1.89-1.74c0-1.13.76-1.69,2.3-1.69a13,13,0,0,1,1.58.13,13.83,13.83,0,0,0,1.59.14,16.25,16.25,0,0,0,1.66-.16c.53-.08.84-.11.91-.11,1.11,0,1.66.68,1.66,2v4.61l-.16,4v3.48a21.24,21.24,0,0,0,.75,6.7c.82,2.26,2.79,3.38,5.9,3.38a7.94,7.94,0,0,0,4.08-1,5.64,5.64,0,0,0,2.46-2.76c.57-1.4.86-4,.86-7.94V20.28c-.18-1.71-.64-2.57-1.39-2.57h-1.61c-1.25,0-1.88-.54-1.88-1.61,0-1.22.7-1.82,2.09-1.82a13.05,13.05,0,0,1,1.48.11c.66.07,1.15.1,1.47.1a11.28,11.28,0,0,0,1.29-.1,9.73,9.73,0,0,1,1.29-.11c1.07,0,1.61.57,1.61,1.72a5.18,5.18,0,0,1-.11,1.18,49.69,49.69,0,0,0-.27,6v8.28c0,2.18,0,3.4.05,3.65q.27,2.85,1.5,2.85a6.7,6.7,0,0,0,1.08-.11,7.51,7.51,0,0,1,1.07-.1c1.21,0,1.82.58,1.82,1.74s-.75,1.8-2.25,1.8a13.28,13.28,0,0,1-1.39-.11c-.9-.11-1.45-.16-1.67-.16s-.48,0-1.12.1a4.7,4.7,0,0,1-1.13.17Q211.75,41.31,211.75,39.75Z"/><path class="cls-1" d="M247.36,25.28a6.55,6.55,0,0,1-.27,2.49q-.27.45-1.56.45h-17.1a1.44,1.44,0,0,0-.91.19.77.77,0,0,0-.22.62,9.75,9.75,0,0,0,2.42,6.74,8,8,0,0,0,10.35,1.41,5.93,5.93,0,0,0,2.56-3.27l.48-1.56a1.66,1.66,0,0,1,1.77-1.29,1.78,1.78,0,0,1,2,2c0,2.32-1.18,4.39-3.54,6.19a12.84,12.84,0,0,1-8,2.71,11.31,11.31,0,0,1-8.95-3.78Q223,34.44,223,28.06q0-6.54,3.54-10.62a11.65,11.65,0,0,1,9.22-4.07,11.14,11.14,0,0,1,8.32,3.36A11.79,11.79,0,0,1,247.36,25.28Zm-19.47-1.35c0,.5.4.75,1.18.75h12.87c.75,0,1.13-.25,1.13-.75A6.64,6.64,0,0,0,240.91,19a7,7,0,0,0-5-2.09,8.12,8.12,0,0,0-5.49,2.17A6.37,6.37,0,0,0,227.89,23.93Z"/><path class="cls-1" d="M260,25.54v7c0,1.79,0,2.84.06,3.16.17,1.61.66,2.42,1.44,2.42a9.64,9.64,0,0,0,1.34-.23,2.73,2.73,0,0,1,.81-.09q2,0,2,1.74a1.58,1.58,0,0,1-.68,1.27,2.65,2.65,0,0,1-1.69.53,21.6,21.6,0,0,1-2.61-.25,21.28,21.28,0,0,0-2.61-.24A24.26,24.26,0,0,0,255,41a27.5,27.5,0,0,1-2.8.27c-1.43,0-2.15-.6-2.15-1.8s.61-1.74,1.84-1.74a8.54,8.54,0,0,1,1.27.13,8.54,8.54,0,0,0,1.27.13c.87,0,1.39-1.14,1.57-3.43V20.87c-.18-2.25-.72-3.37-1.62-3.37a5.84,5.84,0,0,0-1.22.18,5.27,5.27,0,0,1-1.16.19c-1.3,0-2-.57-2-1.72s.78-1.82,2.36-1.82a12,12,0,0,1,1.45.06q1.71.21,2.19.21a9.46,9.46,0,0,0,1.32-.13,9.91,9.91,0,0,1,1.31-.14c1,0,1.56.7,1.56,2.09,0,.15,0,.36-.05.65s0,.5,0,.64-.06,1.39-.08,3.32C260,22.5,260,24,260,25.54Zm-2.79-14a2.88,2.88,0,0,1-2.11-.89,2.88,2.88,0,0,1-.89-2.11,2.79,2.79,0,0,1,.89-2.09,3,3,0,0,1,4.23,0,2.79,2.79,0,0,1,.89,2.09,2.88,2.88,0,0,1-.89,2.11A2.89,2.89,0,0,1,257.22,11.49Z"/><path class="cls-1" d="M276.37,18.68V35.35c0,1.83.52,2.74,1.46,2.74a8.26,8.26,0,0,0,1.35-.23,8.25,8.25,0,0,1,.87-.09,1.58,1.58,0,0,1,1.79,1.79c0,1.16-.73,1.75-2.19,1.75-.57,0-1.48-.08-2.73-.22a27.87,27.87,0,0,0-2.88-.21,23.14,23.14,0,0,0-2.57.21,23.73,23.73,0,0,1-2.51.22h-.27c-1.49,0-2.24-.64-2.24-1.91,0-1.09.61-1.63,1.84-1.63h.38a2.91,2.91,0,0,0,.48.06c.91.17,1.43.26,1.57.26a1.13,1.13,0,0,0,1.22-.84,23.51,23.51,0,0,0,.3-4.33l.05-3.77V11.23a15.75,15.75,0,0,0-.16-2.15,1.5,1.5,0,0,0-1.5-1.24c-.11,0-.57.08-1.39.22a5.77,5.77,0,0,1-1,.1c-1.21,0-1.82-.58-1.82-1.74s.71-1.79,2.14-1.79a7.36,7.36,0,0,1,1,.06l1.29.19a10.66,10.66,0,0,0,1.45.12A9.91,9.91,0,0,0,274,4.81a10.63,10.63,0,0,1,1.6-.18c.83,0,1.24.51,1.24,1.55a3.86,3.86,0,0,1-.06.8C276.49,9.74,276.37,13.63,276.37,18.68Z"/><g class="cls-2"><path class="cls-3" d="M216.54,77.15c-2,.44-3.94,1.25-5.91,1.26-45.19.07-90.38-.11-135.56.2-8.71.06-17.41,2-26.08,3.06-.13.53,0-.1.18-.65a23,23,0,0,1,1.28-2.27c-8.54-.92-15.79,2.59-23.27,5.8-.22-1-.41-1.91-.78-3.63-3,2.58-5.83,4.65-8.34,7.19-4.56,4.64-9.62,5.68-13.65,2.41C1.26,88,.12,82.35,1.72,77.31,3.1,73,6.36,70.53,9.85,71.61c2.54.79,4.27,2.92,4.28,6.5,0,3.16-1.34,5-4.52,5.84.79-1.7,1.4-2.49,1.51-3.39.13-1.07.14-2.66-.36-3.24-.67-.78-2.5-1.45-2.74-1.06-1.18,1.9-2.56,4.1-2.73,6.34C5.18,84,6.86,86.49,8.11,87a5.88,5.88,0,0,0,5.2-.6c3.89-2.65,7.54-5.91,11.38-9a17.93,17.93,0,0,1-3.3-3.27A9.84,9.84,0,0,1,20.44,69c5,7.82,11.43,5.94,17.92,5.57-.14-1.4-.25-2.48-.41-4.07,12.57,7.71,25.65,4.16,38.38,4.28,45.43.42,90.86.15,136.29.22,1.47,0,2.95.83,4.42,1.27C216.88,76.55,216.71,76.85,216.54,77.15Z"/><path class="cls-3" d="M249.65,76.21c1.25-.43,2.49-1.22,3.73-1.23,24.28-.07,48.57.11,72.85-.19,5.39-.07,10.78-1.77,16.29-2.73,0,.09-.06,1.08-.14,2.48,6.47.51,13.05,2.16,18-6.69,1,5.93-1.91,7.38-4.39,9.47,4.15,3.29,8,7,12.25,9.51s8.13-.52,7.31-5.62c-.31-1.91-1.79-3.7-3.05-5.07-.35-.39-2.52.7-2.62,1.4-.25,1.72.22,3.62.49,6.31-1.13-1.07-2.9-1.9-3.14-3.2a11.62,11.62,0,0,1,.63-6.43,5.08,5.08,0,0,1,8.06-1.63c3.5,2.89,5,9.18,3.4,13.92-1.55,4.5-6.66,7.38-10.81,5.42-2.65-1.26-5-3.63-7.42-5.52-2.15-1.66-4.28-3.35-6.87-5.37-.17,1.65-.26,2.56-.37,3.71-7.33-3.46-14.7-6.6-23.12-6.17l1.87,4.25c-25.43-8-51.09-2.94-76.53-4.41a35.21,35.21,0,0,1-5.55-1.18Z"/><path class="cls-3" d="M249.65,76.21l.89,1c-.39.4-.77,1.15-1.15,1.15q-16,.09-32,0c-.28,0-.54-.79-.81-1.21.18-.31.35-.61.51-.91.22-.13.44-.37.66-.37Z"/></g></g></svg>