<svg xmlns="http://www.w3.org/2000/svg" viewBox="0 0 229.46 58.21"><defs><style>.cls-1{fill:#666;}</style></defs><title>onglets</title><g id="a_propos" data-name="a propos"><path class="cls-1" d="M28.47,38.74l-1.93-5.25a2.06,2.06,0,0,0-.67-1.07,3,3,0,0,0-1.42-.22H14.91a2.2,2.2,0,0,0-1.48.38,6.57,6.57,0,0,0-1,2l-1.56,4.12a3.4,3.4,0,0,0-.21,1.13c0,1.15.69,1.72,2.09,1.72.36,0,.86,0,1.53-.11s1.15-.11,1.47-.11c1.47,0,2.2.63,2.2,1.88S17.11,45,15.5,45a9.16,9.16,0,0,1-1.18-.11l-2.68-.29a24.43,24.43,0,0,0-2.47-.08c-1.25,0-2.13,0-2.63.08l-2.25.24c-1,.11-1.74.16-2.2.16C.7,45,0,44.43,0,43.25s.68-1.88,2-1.88a.84.84,0,0,1,.64.22h.7a2.49,2.49,0,0,0,2.2-1.13,13.79,13.79,0,0,0,1.07-2.53l10-27.06A3.3,3.3,0,0,1,20,8.61a3.16,3.16,0,0,1,3.27,2.25l9.6,26.6a10.6,10.6,0,0,0,1.66,3.32,2.79,2.79,0,0,0,2.15.81,2.46,2.46,0,0,0,.64-.07l1.5-.15q2,0,2,1.77c0,1.25-.68,1.88-2,1.88a15.22,15.22,0,0,1-1.55-.11,49.85,49.85,0,0,0-5-.37q-2,0-6.44.38c-.75.07-1.32.1-1.71.1-1.43,0-2.15-.61-2.15-1.82s.79-1.83,2.36-1.83a14.14,14.14,0,0,1,1.42.11c.63.07,1.1.11,1.42.11,1.18,0,1.77-.49,1.77-1.45A7.22,7.22,0,0,0,28.47,38.74ZM24.61,27.81,19.79,13,14.85,27.81a2,2,0,0,0-.1.37c0,.32.26.48.8.48h8.53c.43,0,.64-.14.64-.43A1.82,1.82,0,0,0,24.61,27.81Z"/><path class="cls-1" d="M64.13,19.55v1.71a9.58,9.58,0,0,1,8.21-4.18,10.65,10.65,0,0,1,8.53,3.7q3.15,3.7,3.16,10,0,6.81-3.35,10.86a11.07,11.07,0,0,1-9,4,9.63,9.63,0,0,1-7.57-3.28V46.9a19.27,19.27,0,0,0,.11,2.62c.22,1.11.73,1.67,1.56,1.67A5.84,5.84,0,0,0,66.92,51a6.6,6.6,0,0,1,1.13-.16,1.55,1.55,0,0,1,1.72,1.77q0,1.77-2.25,1.77a20.34,20.34,0,0,1-2.4-.21A27.92,27.92,0,0,0,61.59,54a16,16,0,0,0-2.14.11c-1.42.17-2.37.26-2.83.26a2.28,2.28,0,0,1-1.55-.55,1.66,1.66,0,0,1-.64-1.3c0-1.12.6-1.69,1.81-1.69a6,6,0,0,1,1,.14,8,8,0,0,0,1.33.19,1.18,1.18,0,0,0,1.25-1,40.23,40.23,0,0,0,.29-5.82V23.62q0-2.46-1.38-2.46a5.53,5.53,0,0,0-1.14.18,5.14,5.14,0,0,1-1.2.19c-1.31,0-2-.59-2-1.77S55.21,18,56.79,18q.59,0,1.29.06c.89.07,1.55.11,2,.11s.79,0,1.39-.08S62.51,18,62.79,18C63.69,18,64.13,18.55,64.13,19.55Zm.81,6.54a25.36,25.36,0,0,0-.54,5.09c0,.15,0,.41-.05.81v.75A16.87,16.87,0,0,0,64.94,38a6.45,6.45,0,0,0,2.34,2.92,7.84,7.84,0,0,0,10.33-1.53q2.13-2.82,2.13-8,0-10.72-7.64-10.72a7.36,7.36,0,0,0-4.6,1.55A6.74,6.74,0,0,0,64.94,26.09Z"/><path class="cls-1" d="M96.2,19.52V21a9.36,9.36,0,0,1,13.54-1.79,7,7,0,0,1,2.34,5.44,6,6,0,0,1-1.18,3.84A3.81,3.81,0,0,1,107.79,30a3.09,3.09,0,0,1-2.1-.75,2.33,2.33,0,0,1-.85-1.82,2.13,2.13,0,0,1,.64-1.53,2,2,0,0,1,1.5-.67,3.08,3.08,0,0,1,.7.16,2.72,2.72,0,0,0,.32-1.18,3.25,3.25,0,0,0-1.37-2.63,5.36,5.36,0,0,0-3.4-1.07,5.42,5.42,0,0,0-5.58,3.75,21.29,21.29,0,0,0-.86,7v3.54q0,3.6.06,4c.18,2,.74,3.06,1.67,3.06a6.27,6.27,0,0,0,1.46-.18,4.82,4.82,0,0,1,1-.14,1.51,1.51,0,0,1,1.74,1.69c0,1.23-.74,1.85-2.2,1.85h-.22a22.32,22.32,0,0,1-2.44-.19c-1.09-.12-1.9-.19-2.44-.19-1.43,0-2.55,0-3.38.11l-3,.27c-1.47,0-2.2-.63-2.2-1.88s.69-1.66,2.06-1.66a5.21,5.21,0,0,1,.81.05l.81.16a3.93,3.93,0,0,0,.76.11c.9,0,1.39-.82,1.46-2.47V36.6l-.16-12.17C92.5,22.32,92,21.26,91,21.26a7.16,7.16,0,0,0-1.18.14,7,7,0,0,1-1.18.13c-1.18,0-1.77-.56-1.77-1.69S87.64,18,89.18,18a14.47,14.47,0,0,1,1.61.14c.71.08,1.25.13,1.6.13a13.44,13.44,0,0,0,1.4-.13,3.4,3.4,0,0,1,1-.14C95.74,18,96.2,18.5,96.2,19.52Z"/><path class="cls-1" d="M126.77,45.72a11.35,11.35,0,0,1-9-3.89q-3.37-3.88-3.38-10.43T117.79,21a11.54,11.54,0,0,1,9.14-3.89,11.68,11.68,0,0,1,9.22,3.81q3.39,3.81,3.38,10.35t-3.48,10.51A11.77,11.77,0,0,1,126.77,45.72Zm.29-25.1a7.22,7.22,0,0,0-5.91,2.63q-2.16,2.63-2.37,7.45v.7q0,5,2.12,7.91a7,7,0,0,0,5.95,2.87A7.38,7.38,0,0,0,133,39.31q2.24-2.87,2.23-8Q135.24,20.62,127.06,20.62Z"/><path class="cls-1" d="M151.92,19.55v1.71a9.56,9.56,0,0,1,8.2-4.18,10.63,10.63,0,0,1,8.53,3.7q3.16,3.7,3.16,10,0,6.81-3.35,10.86a11.06,11.06,0,0,1-9,4,9.59,9.59,0,0,1-7.56-3.28V46.9a19.27,19.27,0,0,0,.11,2.62c.21,1.11.73,1.67,1.55,1.67a5.91,5.91,0,0,0,1.13-.17,6.52,6.52,0,0,1,1.12-.16,1.54,1.54,0,0,1,1.72,1.77q0,1.77-2.25,1.77a20.34,20.34,0,0,1-2.4-.21,27.81,27.81,0,0,0-3.53-.16,15.94,15.94,0,0,0-2.13.11c-1.43.17-2.37.26-2.84.26a2.3,2.3,0,0,1-1.55-.55,1.69,1.69,0,0,1-.64-1.3c0-1.12.6-1.69,1.81-1.69a6.1,6.1,0,0,1,1,.14,7.78,7.78,0,0,0,1.33.19,1.19,1.19,0,0,0,1.25-1,43.66,43.66,0,0,0,.29-5.82V23.62q-.06-2.46-1.38-2.46a5.7,5.7,0,0,0-1.15.18,5.15,5.15,0,0,1-1.19.19c-1.31,0-2-.59-2-1.77S143,18,144.57,18q.59,0,1.29.06c.89.07,1.55.11,2,.11s.79,0,1.4-.08,1-.09,1.34-.09C151.47,18,151.92,18.55,151.92,19.55Zm.8,6.54a24.72,24.72,0,0,0-.53,5.09c0,.15,0,.41-.06.81v.75a16.87,16.87,0,0,0,.59,5.23,6.41,6.41,0,0,0,2.35,2.92,7.84,7.84,0,0,0,10.33-1.53c1.42-1.88,2.12-4.55,2.12-8q0-10.72-7.64-10.72a7.38,7.38,0,0,0-4.6,1.55A6.79,6.79,0,0,0,152.72,26.09Z"/><path class="cls-1" d="M188.22,45.72a11.37,11.37,0,0,1-9-3.89q-3.37-3.88-3.37-10.43T179.24,21a11.55,11.55,0,0,1,9.14-3.89,11.7,11.7,0,0,1,9.23,3.81Q201,24.7,201,31.24T197.5,41.75A11.76,11.76,0,0,1,188.22,45.72Zm.3-25.1a7.25,7.25,0,0,0-5.92,2.63q-2.15,2.63-2.37,7.45v.7q0,5,2.13,7.91a7,7,0,0,0,5.94,2.87,7.38,7.38,0,0,0,6.16-2.87q2.23-2.87,2.24-8Q196.7,20.62,188.52,20.62Z"/><path class="cls-1" d="M216.45,17.08a9.46,9.46,0,0,1,6,1.88v-.22q0-2,1.71-2a1.54,1.54,0,0,1,1.77,1.71c0,.22,0,.75-.09,1.61a13,13,0,0,0-.18,2.15c0,.43,0,1.05.14,1.87a18.55,18.55,0,0,1,.13,1.88q0,2-1.74,2a1.55,1.55,0,0,1-1.74-1.72V24.53a3.46,3.46,0,0,0-1.86-2.76,7.71,7.71,0,0,0-4.23-1.15,6.69,6.69,0,0,0-4.15,1.26A3.81,3.81,0,0,0,210.53,25q0,3.42,4.73,4.07l3.12.43q9.15,1.23,9.15,7.56a7.66,7.66,0,0,1-2.94,6.25,11.85,11.85,0,0,1-7.7,2.39,12.22,12.22,0,0,1-7.7-2.52v1c0,1.29-.61,1.94-1.82,1.94s-2-.74-2-2.2a26.18,26.18,0,0,0,.32-2.79,9.47,9.47,0,0,0,.11-1.5,13.22,13.22,0,0,0-.21-2.42,9.52,9.52,0,0,1-.22-1.77c0-1.25.57-1.87,1.72-1.87.75,0,1.22.18,1.42.53a8.33,8.33,0,0,1,.35,2.85,4.43,4.43,0,0,0,2.41,3.75,11.38,11.38,0,0,0,6,1.45,6.85,6.85,0,0,0,4.34-1.34,4.12,4.12,0,0,0,1.72-3.38c0-2.43-1.93-3.85-5.79-4.24a23.17,23.17,0,0,1-8.42-2.17q-2.89-1.57-2.9-5.55a7.55,7.55,0,0,1,2.83-6.09A11.27,11.27,0,0,1,216.45,17.08Z"/></g></svg>