<svg id="contact" xmlns="http://www.w3.org/2000/svg" viewBox="0 0 198.09 58.21"><defs><style>.cls-1{fill:#666;}</style></defs><title>onglets</title><path class="cls-1" d="M18.13,7.86a12,12,0,0,1,9.7,4.55v-1.2a2.59,2.59,0,0,1-.11-.39c-.07-.8-.1-1.17-.1-1.1,0-1.24.55-1.86,1.66-1.86s1.77.75,1.77,2.25c0,.29,0,1.14-.11,2.57-.18,1.79-.27,3-.27,3.7,0,1,.06,1.95.16,2.95l.22,2v.54c0,1.6-.64,2.41-1.93,2.41s-2.08-.76-2-2.29V20.12a7.86,7.86,0,0,0-2.41-6.22,9.1,9.1,0,0,0-6.57-2.4,9.69,9.69,0,0,0-8.29,4.09q-3,4.08-3,11.28T9.89,38.34a10.1,10.1,0,0,0,8.58,4.1A10.11,10.11,0,0,0,23.85,41a7.94,7.94,0,0,0,3.34-3.82A11.32,11.32,0,0,0,27.83,33c0-1.65.69-2.47,2.07-2.47s2.22.82,2.22,2.46a12.16,12.16,0,0,1-4,9.39A14.53,14.53,0,0,1,17.91,46,14.37,14.37,0,0,1,6.35,40.89Q2,35.79,2,27.32q0-8.73,4.42-14.1A14.37,14.37,0,0,1,18.13,7.86Z"/><path class="cls-1" d="M48.58,45.72a11.33,11.33,0,0,1-9-3.89Q36.19,37.95,36.2,31.4T39.6,21a11.56,11.56,0,0,1,9.15-3.89A11.7,11.7,0,0,1,58,20.89q3.38,3.81,3.38,10.35T57.86,41.75A11.74,11.74,0,0,1,48.58,45.72Zm.3-25.1A7.25,7.25,0,0,0,43,23.25q-2.15,2.63-2.37,7.45v.7q0,5,2.13,7.91a7,7,0,0,0,5.94,2.87,7.37,7.37,0,0,0,6.16-2.87q2.24-2.87,2.24-8Q57.06,20.62,48.88,20.62Z"/><path class="cls-1" d="M73.73,19.63v1.53a10.39,10.39,0,0,1,8.58-4.08,10.82,10.82,0,0,1,5.47,1.47,7.74,7.74,0,0,1,3.49,3.68A12.68,12.68,0,0,1,92,27V37.19c0,1.54,0,2.45,0,2.73.18,1.22.67,1.83,1.45,1.83a7.84,7.84,0,0,0,1.26-.14,7.37,7.37,0,0,1,1.1-.13,1.7,1.7,0,0,1,1.21.48,1.57,1.57,0,0,1,.51,1.18A1.66,1.66,0,0,1,97,44.48,2.31,2.31,0,0,1,95.4,45a21.47,21.47,0,0,1-2.47-.22,26.44,26.44,0,0,0-3.22-.21,20.67,20.67,0,0,0-2.3.11c-1.79.21-2.74.32-2.84.32-1.43,0-2.15-.63-2.15-1.88s.62-1.66,1.86-1.66a5.43,5.43,0,0,1,1,.11,9.1,9.1,0,0,0,1.31.21c.87,0,1.35-1,1.42-2.95V28.77a18.71,18.71,0,0,0-.27-3.91,5.16,5.16,0,0,0-2.08-3.17,6.84,6.84,0,0,0-4-1.23c-2.85,0-4.89,1-6.14,3.05-.86,1.4-1.28,3.78-1.28,7.14v7.13A10.49,10.49,0,0,0,74.54,41a1.17,1.17,0,0,0,1.18.85,5.45,5.45,0,0,0,1.18-.18,5.06,5.06,0,0,1,1.23-.19c1.11,0,1.66.6,1.66,1.8S79.08,45,77.65,45c-.29,0-1.22-.11-2.79-.32a19.14,19.14,0,0,0-2.63-.16,28.34,28.34,0,0,0-3,.21c-1.57.18-2.47.27-2.68.27-1.5,0-2.25-.61-2.25-1.82A1.53,1.53,0,0,1,66,41.48a5.36,5.36,0,0,1,1,.16,6.71,6.71,0,0,0,1.45.16c1.09,0,1.66-1,1.7-3.11V24.37a6.92,6.92,0,0,0-.47-2.49,1.27,1.27,0,0,0-1.23-.67,5.55,5.55,0,0,0-1.12.16,5.46,5.46,0,0,1-1.12.16c-1.31,0-2-.58-2-1.74s.8-1.8,2.41-1.8a2.76,2.76,0,0,1,.54.05l2,.22a8.21,8.21,0,0,0,1.5-.13L72.18,18C73.22,18,73.73,18.54,73.73,19.63Z"/><path class="cls-1" d="M114.6,37.4V34c0-1.46.68-2.2,1.93-2.2s1.87.83,1.87,2.47c0,3.9-.49,6.61-1.49,8.15-1.35,2.08-3.57,3.11-6.65,3.11q-4.26,0-6.08-2.73c-.88-1.33-1.33-3.58-1.33-6.76V23.14c0-.75-.34-1.13-1-1.13h-1.75a2,2,0,0,1-1.46-.56A1.86,1.86,0,0,1,98,20.08a1.88,1.88,0,0,1,.56-1.34,1.72,1.72,0,0,1,1.26-.59h2.09c.61,0,.91-.34.91-1V11.61a1.83,1.83,0,0,1,2.09-2c1.29,0,1.94.68,1.94,2v5.74c0,.53.32.8,1,.8h5.85c1.35,0,2,.63,2,1.88s-.73,2-2.2,2h-5.89c-.51,0-.75.38-.75,1.13V36.33c0,3.76,1.25,5.63,3.75,5.63S114.49,40.44,114.6,37.4Z"/><path class="cls-1" d="M144.2,45.5q-4.39,0-5.42-3.81-2.73,4-8.58,4a10.57,10.57,0,0,1-6.94-2.15,7,7,0,0,1-2.6-5.74,7,7,0,0,1,3.8-6.54,10.28,10.28,0,0,1,2.5-1.05c.69-.16,2.1-.36,4.21-.61q4.5-.48,5.87-1.34a3.45,3.45,0,0,0,1.37-3.17,4.25,4.25,0,0,0-1.53-3.46,6.59,6.59,0,0,0-4.27-1.26,8.15,8.15,0,0,0-4.5,1.35,1.42,1.42,0,0,0-.8,1.12q0,.21.48.54a2.08,2.08,0,0,1,.75,1.82,2.26,2.26,0,0,1-.78,1.77,2.8,2.8,0,0,1-2,.7,3.1,3.1,0,0,1-2.33-1,3.28,3.28,0,0,1-.94-2.36,6.25,6.25,0,0,1,3-5.15,12.06,12.06,0,0,1,7.21-2.14q9.76,0,9.76,9.36V37.25a22.78,22.78,0,0,0,.11,3c.21,1.25.82,1.88,1.82,1.88,1.25,0,1.88-1.14,1.88-3.41V36.16c0-1.14.54-1.71,1.64-1.71s1.74.86,1.74,2.58v3.32C149.6,43.79,147.77,45.5,144.2,45.5Zm-6-10.67V31a6.69,6.69,0,0,1-2.48,1.5,24.24,24.24,0,0,1-4.67.75q-6.09.6-6.09,4.51A3.91,3.91,0,0,0,126.42,41a6.27,6.27,0,0,0,4,1.18,7.89,7.89,0,0,0,5.65-2A7.21,7.21,0,0,0,138.19,34.83Z"/><path class="cls-1" d="M167,27.11c0-1.43.89-2.25,2.68-2.47a4.19,4.19,0,0,0-1.8-2.95,6.83,6.83,0,0,0-4-1.07,7.16,7.16,0,0,0-6,2.95,12.58,12.58,0,0,0-2.26,7.83q0,5,2.13,7.91a6.92,6.92,0,0,0,5.89,2.87,6.6,6.6,0,0,0,4.11-1.34,6.8,6.8,0,0,0,2.39-3.7c.36-1.26.58-2,.65-2.15a1.87,1.87,0,0,1,1.72-1.07,2,2,0,0,1,2.1,2.09,8.08,8.08,0,0,1-.86,3.22,11,11,0,0,1-2,3.11,10.73,10.73,0,0,1-8.2,3.38,11.12,11.12,0,0,1-8.83-3.87q-3.34-3.85-3.35-10.13,0-6.64,3.46-10.65a11.57,11.57,0,0,1,9.2-4,10.88,10.88,0,0,1,7.13,2.33A7.33,7.33,0,0,1,174,25.34a4.83,4.83,0,0,1-1.1,3.27,3.52,3.52,0,0,1-2.81,1.29,3.17,3.17,0,0,1-2.23-.81A2.56,2.56,0,0,1,167,27.11Z"/><path class="cls-1" d="M193.64,37.4V34c0-1.46.68-2.2,1.93-2.2s1.88.83,1.88,2.47c0,3.9-.5,6.61-1.49,8.15-1.35,2.08-3.57,3.11-6.66,3.11-2.84,0-4.87-.91-6.07-2.73q-1.33-2-1.33-6.76V23.14c0-.75-.35-1.13-1.05-1.13H179.1a2,2,0,0,1-1.45-.56,1.83,1.83,0,0,1-.58-1.37,1.92,1.92,0,0,1,.56-1.34,1.74,1.74,0,0,1,1.26-.59H181c.61,0,.92-.34.92-1V11.61a1.82,1.82,0,0,1,2.09-2c1.28,0,1.93.68,1.93,2v5.74c0,.53.32.8,1,.8h5.85c1.36,0,2,.63,2,1.88s-.74,2-2.2,2h-5.9c-.5,0-.75.38-.75,1.13V36.33c0,3.76,1.25,5.63,3.75,5.63S193.53,40.44,193.64,37.4Z"/></svg>